# xmcd CD database file
#
# Track frame offsets:
#	150
#	23210
#	43272
#	61762
#	82290
#	101530
#	118662
#	139217
#	157667
#	182207
#	204125
#	221512
#	240765
#
# Disc length: 3516 seconds
#
# Revision: 1
# Processed by: cddbd v1.5PL3 Copyright (c) Steve Scherf et al.
# Submitted via: CDex 1.50beta8
#
DISCID=a90dba0d
DTITLE=Luka - Around the corner
DYEAR=2000
DGENRE=JPop
TTITLE0=My Life
TTITLE1=PLEASE!
TTITLE2=UP TO YOU
TTITLE3=LOVE TO SURVIVE
TTITLE4=Happiness
TTITLE5=Hear me (Japanese Ver.)
TTITLE6=BETTER PLACE
TTITLE7=For What?
TTITLE8=Live Together
TTITLE9=Make it somehow -きっと・ダイジョーブ-
TTITLE10=All I do
TTITLE11=Don't walk away (Single version)
TTITLE12=Jewel
EXTD=YEAR: 2000
EXTT0=
EXTT1=
EXTT2=
EXTT3=
EXTT4=
EXTT5=
EXTT6=
EXTT7=
EXTT8=
EXTT9=
EXTT10=
EXTT11=
EXTT12=
PLAYORDER=
